# xmcd
#
# Track frame offsets:
#	150
#	9205
#	21506
#	32602
#	44179
#	53457
#	66977
#	77927
#	90277
#	101101
#	111723
#	122164
#	131707
#	141737
#	155188
#	165163
#	175820
#
# Disc length: 2473 seconds
#
# Revision: 1
# Processed by: cddbd v1.4PL0 Copyright (c) Steve Scherf et al.
# Submitted via: audiograbber 1.80.04
#
DISCID=f109a711
DTITLE=Cheryl Poole - Cheryl,  L P Plus Singles
DYEAR=1900
DGENRE=Country
TTITLE0=Throwing In The Crying Towel
TTITLE1=Every Chance You Get
TTITLE2=There's Got To Be A Woman Too
TTITLE3=Second  Hand  Girl
TTITLE4=Three Playin' Love
TTITLE5=Daddy's Little Girl
TTITLE6=Ruby's Stool
TTITLE7=I'm Not Your Woman
TTITLE8=Kansas City
TTITLE9=If Your Gonna Be My Man
TTITLE10=The Skin's Gettin' Closer To The Bone
TTITLE11=You Ain't No Friend Of Mine
TTITLE12=Swinging Blue
TTITLE13=I'm So Lonsome I Could Cry
TTITLE14=Walk Among The People
TTITLE15=You Haven't Read The Book
TTITLE16=dirty little four letter word
EXTD=
EXTT0=
EXTT1=
EXTT2=
EXTT3=
EXTT4=
EXTT5=
EXTT6=
EXTT7=
EXTT8=
EXTT9=
EXTT10=
EXTT11=
EXTT12=
EXTT13=
EXTT14=
EXTT15=
EXTT16=
PLAYORDER=
